<?xml version="1.0" encoding="UTF-8" standalone="no"?>
<!DOCTYPE svg PUBLIC "-//W3C//DTD SVG 1.1//EN"
 "http://www.w3.org/Graphics/SVG/1.1/DTD/svg11.dtd">
<!-- Generated by graphviz version 10.0.1 (20240210.2158)
 -->
<!-- Pages: 1 -->
<svg width="350pt" height="310pt"
 viewBox="0.00 0.00 350.18 310.40" xmlns="http://www.w3.org/2000/svg" xmlns:xlink="http://www.w3.org/1999/xlink">
<g id="graph0" class="graph" transform="scale(1 1) rotate(0) translate(4 306.4)">
<polygon fill="white" stroke="none" points="-4,4 -4,-306.4 346.18,-306.4 346.18,4 -4,4"/>
<!-- 0 -->
<g id="node1" class="node">
<title>0</title>
<ellipse fill="none" stroke="black" cx="126.89" cy="-284.4" rx="37.85" ry="18"/>
<text text-anchor="middle" x="126.89" y="-280.2" font-family="Times,serif" font-size="14.00">Faerun</text>
</g>
<!-- 3 -->
<g id="node4" class="node">
<title>3</title>
<ellipse fill="none" stroke="black" cx="67.89" cy="-195.6" rx="67.89" ry="18"/>
<text text-anchor="middle" x="67.89" y="-191.4" font-family="Times,serif" font-size="14.00">AlphaCentauri</text>
</g>
<!-- 0&#45;&#45;3 -->
<g id="edge2" class="edge">
<title>0&#45;&#45;3</title>
<path fill="none" stroke="black" d="M115.79,-267.07C105.44,-251.85 90.07,-229.23 79.54,-213.74"/>
<text text-anchor="middle" x="109.89" y="-235.8" font-family="Times,serif" font-size="14.00">13</text>
</g>
<!-- 4 -->
<g id="node5" class="node">
<title>4</title>
<ellipse fill="none" stroke="black" cx="186.89" cy="-195.6" rx="33.56" ry="18"/>
<text text-anchor="middle" x="186.89" y="-191.4" font-family="Times,serif" font-size="14.00">Arbre</text>
</g>
<!-- 0&#45;&#45;4 -->
<g id="edge4" class="edge">
<title>0&#45;&#45;4</title>
<path fill="none" stroke="black" d="M138.17,-267.07C148.9,-251.56 164.94,-228.35 175.65,-212.85"/>
<text text-anchor="middle" x="169.89" y="-235.8" font-family="Times,serif" font-size="14.00">24</text>
</g>
<!-- 1 -->
<g id="node2" class="node">
<title>1</title>
<ellipse fill="none" stroke="black" cx="279.89" cy="-195.6" rx="41.07" ry="18"/>
<text text-anchor="middle" x="279.89" y="-191.4" font-family="Times,serif" font-size="14.00">Norrath</text>
</g>
<!-- 7 -->
<g id="node8" class="node">
<title>7</title>
<ellipse fill="none" stroke="black" cx="186.89" cy="-106.8" rx="49.13" ry="18"/>
<text text-anchor="middle" x="186.89" y="-102.6" font-family="Times,serif" font-size="14.00">Straylight</text>
</g>
<!-- 1&#45;&#45;7 -->
<g id="edge7" class="edge">
<title>1&#45;&#45;7</title>
<path fill="none" stroke="black" d="M263.26,-179.08C246.65,-163.58 221.21,-139.83 204.32,-124.07"/>
<text text-anchor="middle" x="248.89" y="-147" font-family="Times,serif" font-size="14.00">54</text>
</g>
<!-- 2 -->
<g id="node3" class="node">
<title>2</title>
<ellipse fill="none" stroke="black" cx="297.89" cy="-106.8" rx="44.29" ry="18"/>
<text text-anchor="middle" x="297.89" y="-102.6" font-family="Times,serif" font-size="14.00">Tristram</text>
</g>
<!-- 6 -->
<g id="node7" class="node">
<title>6</title>
<ellipse fill="none" stroke="black" cx="184.89" cy="-18" rx="36.24" ry="18"/>
<text text-anchor="middle" x="184.89" y="-13.8" font-family="Times,serif" font-size="14.00">Tambi</text>
</g>
<!-- 2&#45;&#45;6 -->
<g id="edge6" class="edge">
<title>2&#45;&#45;6</title>
<path fill="none" stroke="black" d="M277.95,-90.48C257.04,-74.42 224.42,-49.37 203.88,-33.59"/>
<text text-anchor="middle" x="258.89" y="-58.2" font-family="Times,serif" font-size="14.00">49</text>
</g>
<!-- 5 -->
<g id="node6" class="node">
<title>5</title>
<ellipse fill="none" stroke="black" cx="72.89" cy="-106.8" rx="45.38" ry="18"/>
<text text-anchor="middle" x="72.89" y="-102.6" font-family="Times,serif" font-size="14.00">Snowdin</text>
</g>
<!-- 3&#45;&#45;5 -->
<g id="edge1" class="edge">
<title>3&#45;&#45;5</title>
<path fill="none" stroke="black" d="M68.88,-177.45C69.75,-162.33 71.01,-140.41 71.89,-125.21"/>
<text text-anchor="middle" x="77.89" y="-147" font-family="Times,serif" font-size="14.00">12</text>
</g>
<!-- 4&#45;&#45;7 -->
<g id="edge5" class="edge">
<title>4&#45;&#45;7</title>
<path fill="none" stroke="black" d="M186.89,-177.45C186.89,-162.33 186.89,-140.41 186.89,-125.21"/>
<text text-anchor="middle" x="193.89" y="-147" font-family="Times,serif" font-size="14.00">40</text>
</g>
<!-- 5&#45;&#45;6 -->
<g id="edge3" class="edge">
<title>5&#45;&#45;6</title>
<path fill="none" stroke="black" d="M92.91,-90.28C113.68,-74.19 145.88,-49.23 166.16,-33.52"/>
<text text-anchor="middle" x="146.89" y="-58.2" font-family="Times,serif" font-size="14.00">15</text>
</g>
</g>
</svg>
